<svg width="59" height="59" viewBox="0 0 59 59" fill="none" xmlns="http://www.w3.org/2000/svg">
<path d="M16.9109 17.903L17.8221 16.9819L23.8097 23.0351C24.4606 23.693 24.4606 24.6141 23.8097 25.2721L21.5969 27.5091C20.9461 28.1671 20.9461 29.0882 21.5969 29.7462L29.0164 37.2469C29.6672 37.9048 30.5784 37.9048 31.2292 37.2469L33.4421 35.0098C34.0929 34.3519 35.004 34.3519 35.6549 35.0098L41.3822 40.7998L39.9504 42.2473C35.9152 46.3266 29.2767 46.3266 25.1114 42.2473L16.7808 33.8255C12.6154 29.483 12.6154 22.2455 16.9109 17.903Z" stroke="white" stroke-width="2.136" stroke-miterlimit="22.9256" stroke-linecap="round" stroke-linejoin="round"/>
<path d="M42.8143 26.5879H31.8804V15.5342" stroke="white" stroke-width="2.136" stroke-miterlimit="22.9256" stroke-linecap="round" stroke-linejoin="round"/>
<path d="M31.8804 26.5882L45.2875 13.6923" stroke="white" stroke-width="2.136" stroke-miterlimit="22.9256" stroke-linecap="round" stroke-linejoin="round"/>
<circle cx="29.48" cy="29.5" r="27.912" stroke="white" stroke-width="2.136"/>
</svg>
