<svg width="58" height="58" viewBox="0 0 58 58" fill="none" xmlns="http://www.w3.org/2000/svg">
<path d="M16.411 17.3831L17.3221 16.4619L23.3098 22.5151C23.9606 23.1731 23.9606 24.0942 23.3098 24.7521L21.0969 26.9892C20.4461 27.6471 20.4461 28.5683 21.0969 29.2262L28.5164 36.7269C29.1673 37.3849 30.0784 37.3849 30.7293 36.7269L32.9421 34.4899C33.5929 33.8319 34.5041 33.8319 35.1549 34.4899L40.8822 40.2799L39.4504 41.7274C35.4152 45.8067 28.7768 45.8067 24.6114 41.7274L16.2808 33.3055C12.1155 28.963 12.1155 21.7255 16.411 17.3831Z" stroke="#004A27" stroke-width="2.136" stroke-miterlimit="22.9256" stroke-linecap="round" stroke-linejoin="round"/>
<path d="M42.3144 26.068H31.3804V15.0144" stroke="#004A27" stroke-width="2.136" stroke-miterlimit="22.9256" stroke-linecap="round" stroke-linejoin="round"/>
<path d="M31.3804 26.0683L44.7875 13.1724" stroke="#004A27" stroke-width="2.136" stroke-miterlimit="22.9256" stroke-linecap="round" stroke-linejoin="round"/>
<circle cx="28.98" cy="28.98" r="27.912" stroke="#ED5D2B" stroke-width="2.136"/>
</svg>
