<svg width="35" height="34" viewBox="0 0 35 34" fill="none" xmlns="http://www.w3.org/2000/svg">
<path d="M34.005 13.5992H32.642V13.529H17.4127V20.2979H26.9759C25.5807 24.2382 21.8317 27.0668 17.4127 27.0668C11.8058 27.0668 7.2598 22.5206 7.2598 16.9134C7.2598 11.3063 11.8058 6.7601 17.4127 6.7601C20.0008 6.7601 22.3554 7.73652 24.1483 9.33144L28.9345 4.54498C25.9123 1.72828 21.8698 -0.00878906 17.4127 -0.00878906C8.0678 -0.00878906 0.491211 7.56814 0.491211 16.9134C0.491211 26.2587 8.0678 33.8357 17.4127 33.8357C26.7576 33.8357 34.3342 26.2587 34.3342 16.9134C34.3342 15.7788 34.2174 14.6712 34.005 13.5992Z" fill="#FFC107"/>
<path d="M2.43964 9.03699L7.99919 13.1144C9.50351 9.38982 13.1467 6.7601 17.4101 6.7601C19.9982 6.7601 22.3528 7.73652 24.1457 9.33144L28.9319 4.54498C25.9097 1.72828 21.8672 -0.00878906 17.4101 -0.00878906C10.9105 -0.00878906 5.27398 3.6608 2.43964 9.03699Z" fill="#FF3D00"/>
<path d="M17.4119 33.8358C21.7828 33.8358 25.7542 32.1631 28.7569 29.4428L23.5197 25.0109C21.7641 26.347 19.6181 27.0693 17.4119 27.067C13.0107 27.067 9.27356 24.2604 7.86569 20.3438L2.3476 24.5955C5.1481 30.0757 10.8354 33.8358 17.4119 33.8358Z" fill="#4CAF50"/>
<path d="M34.0064 13.5985H32.6433V13.5283H17.414V20.2972H26.9772C26.3098 22.1725 25.1077 23.8113 23.5193 25.0109L23.5218 25.0092L28.759 29.4411C28.3884 29.7779 34.3355 25.3739 34.3355 16.9128C34.3355 15.7781 34.2187 14.6706 34.0064 13.5985Z" fill="#1976D2"/>
</svg>
